<svg height="464pt" viewBox="0 0 464 464.0003" width="464pt" xmlns="http://www.w3.org/2000/svg"><g fill="#ffcd00"><path d="m0 248c.0117188 5.804688.820312 11.582031 2.398438 17.167969-1.585938-10.984375-2.3867192-22.070313-2.398438-33.167969zm0 0"/><path d="m464 248v-16c-.011719 11.097656-.8125 22.183594-2.398438 33.167969 1.578126-5.585938 2.386719-11.363281 2.398438-17.167969zm0 0"/><path d="m0 216v16c.0117188-11.097656.8125-22.183594 2.398438-33.167969-1.578126 5.585938-2.3867192 11.363281-2.398438 17.167969zm0 0"/><path d="m464 232v-16c-.011719-5.804688-.820312-11.582031-2.398438-17.167969 1.585938 10.984375 2.386719 22.070313 2.398438 33.167969zm0 0"/></g><path d="m133.601562 83.824219c-9.84375 21.816406-17.144531 44.691406-21.761718 68.175781h120.160156v-56c-33.179688.097656-66.242188-3.992188-98.398438-12.175781zm0 0" fill="#005ece"/><path d="m232 96v56h120.160156c-4.617187-23.484375-11.917968-46.359375-21.761718-68.175781-32.15625 8.183593-65.214844 12.273437-98.398438 12.175781zm0 0" fill="#006df0"/><path d="m111.839844 312h-47.839844c-28.714844-.023438-53.898438-19.171875-61.601562-46.832031 7.554687 52.523437 32.925781 100.859375 71.867187 136.902343 18.929687-9.414062 38.824219-16.757812 59.335937-21.894531-9.84375-21.816406-17.144531-44.691406-21.761718-68.175781zm0 0" fill="#00479b"/><path d="m133.601562 380.175781c23.46875 51.160157 58.796876 83.824219 98.398438 83.824219v-96c-33.179688-.097656-66.242188 3.992188-98.398438 12.175781zm0 0" fill="#00479b"/><path d="m330.398438 380.175781c9.84375-21.816406 17.144531-44.691406 21.761718-68.175781h-120.160156v56c33.183594-.097656 66.242188 3.992188 98.398438 12.175781zm0 0" fill="#005ece"/><path d="m232 368v-56h-120.160156c4.617187 23.484375 11.917968 46.359375 21.761718 68.175781 32.15625-8.183593 65.21875-12.273437 98.398438-12.175781zm0 0" fill="#004fac"/><path d="m330.398438 380.175781c-32.15625-8.183593-65.214844-12.273437-98.398438-12.175781v96c39.601562 0 74.929688-32.664062 98.398438-83.824219zm0 0" fill="#004fac"/><path d="m232 464c58.523438.066406 114.890625-22.066406 157.734375-61.929688-18.929687-9.414062-38.824219-16.757812-59.335937-21.894531-23.46875 51.160157-58.796876 83.824219-98.398438 83.824219zm0 0" fill="#005ece"/><path d="m352.160156 152h47.839844c28.714844.023438 53.898438 19.171875 61.601562 46.832031-7.550781-52.523437-32.925781-100.855469-71.867187-136.902343-18.929687 9.414062-38.824219 16.757812-59.335937 21.894531 9.84375 21.816406 17.144531 44.691406 21.761718 68.175781zm0 0" fill="#2488ff"/><path d="m400 312h-47.839844c-4.617187 23.484375-11.917968 46.359375-21.761718 68.175781 20.515624 5.136719 40.410156 12.480469 59.347656 21.894531 38.9375-36.046874 64.304687-84.378906 71.855468-136.902343-7.703124 27.660156-32.886718 46.808593-61.601562 46.832031zm0 0" fill="#006df0"/><path d="m133.601562 83.824219c32.15625 8.183593 65.21875 12.273437 98.398438 12.175781v-96c-39.601562 0-74.929688 32.664062-98.398438 83.824219zm0 0" fill="#006df0"/><path d="m330.398438 83.824219c-23.46875-51.160157-58.796876-83.824219-98.398438-83.824219v96c33.183594.097656 66.242188-3.992188 98.398438-12.175781zm0 0" fill="#2488ff"/><path d="m330.398438 83.824219c20.515624-5.136719 40.410156-12.476563 59.347656-21.894531-42.851563-39.867188-99.222656-61.9960942-157.746094-61.929688 39.601562 0 74.929688 32.664062 98.398438 83.824219zm0 0" fill="#57a4ff"/><path d="m232 0c-58.519531-.0625-114.890625 22.066406-157.734375 61.929688 18.929687 9.414062 38.824219 16.757812 59.335937 21.894531 23.46875-51.160157 58.796876-83.824219 98.398438-83.824219zm0 0" fill="#005ece"/><path d="m133.601562 380.175781c-20.515624 5.136719-40.410156 12.480469-59.34375 21.894531 42.847657 39.867188 99.21875 61.996094 157.742188 61.929688-39.601562 0-74.929688-32.664062-98.398438-83.824219zm0 0" fill="#003f8a"/><path d="m64 152h47.839844c4.617187-23.484375 11.917968-46.359375 21.761718-68.175781-20.515624-5.136719-40.410156-12.476563-59.34375-21.894531-38.941406 36.046874-64.308593 84.378906-71.859374 136.902343 7.703124-27.660156 32.886718-46.808593 61.601562-46.832031zm0 0" fill="#004fac"/><path d="m461.601562 198.832031c-7.703124-27.660156-32.886718-46.808593-61.601562-46.832031h-336c-28.714844.023438-53.898438 19.171875-61.601562 46.832031-3.199219 21.996094-3.199219 44.339844 0 66.335938 7.703124 27.660156 32.886718 46.808593 61.601562 46.832031h336c28.714844-.023438 53.898438-19.171875 61.601562-46.832031 3.199219-21.996094 3.199219-44.339844 0-66.335938zm0 0" fill="#ed1c24"/><path d="m128 280c-3.269531.003906-6.214844-1.988281-7.433594-5.023438l-24.566406-61.441406-24.566406 61.441406c-1.265625 3.160157-4.390625 5.179688-7.792969 5.023438-3.398437-.152344-6.332031-2.441406-7.304687-5.703125l-24-80c-1.269532-4.234375 1.136718-8.691406 5.367187-9.960937 4.234375-1.269532 8.691406 1.136718 9.960937 5.367187l17.417969 58.058594 23.484375-58.738281c1.214844-3.042969 4.160156-5.039063 7.433594-5.039063 3.277344 0 6.21875 1.996094 7.433594 5.039063l23.488281 58.738281 17.414063-58.058594c1.269531-4.230469 5.726562-6.636719 9.960937-5.367187 4.230469 1.269531 6.636719 5.726562 5.367187 9.960937l-24 80c-.976562 3.261719-3.910156 5.546875-7.3125 5.695313zm0 0" fill="#f1f2f2"/><path d="m264 280c-3.269531.003906-6.214844-1.988281-7.433594-5.023438l-24.566406-61.441406-24.566406 61.441406c-1.265625 3.160157-4.390625 5.179688-7.792969 5.023438-3.398437-.152344-6.332031-2.441406-7.304687-5.703125l-24-80c-1.269532-4.234375 1.136718-8.691406 5.367187-9.960937 4.234375-1.269532 8.691406 1.136718 9.960937 5.367187l17.417969 58.058594 23.484375-58.738281c1.214844-3.042969 4.160156-5.039063 7.433594-5.039063 3.277344 0 6.21875 1.996094 7.433594 5.039063l23.488281 58.738281 17.414063-58.058594c1.269531-4.230469 5.726562-6.636719 9.960937-5.367187 4.230469 1.269531 6.636719 5.726562 5.367187 9.960937l-24 80c-.976562 3.257813-3.90625 5.542969-7.304687 5.695313zm0 0" fill="#f1f2f2"/><path d="m408 280c-3.269531.003906-6.214844-1.988281-7.433594-5.023438l-24.566406-61.441406-24.566406 61.441406c-1.265625 3.160157-4.390625 5.179688-7.792969 5.023438-3.398437-.152344-6.332031-2.441406-7.304687-5.703125l-24-80c-1.269532-4.234375 1.136718-8.691406 5.367187-9.960937 4.234375-1.269532 8.691406 1.136718 9.960937 5.367187l17.417969 58.058594 23.484375-58.738281c1.214844-3.042969 4.160156-5.039063 7.433594-5.039063 3.277344 0 6.21875 1.996094 7.433594 5.039063l23.488281 58.738281 17.414063-58.058594c1.269531-4.230469 5.726562-6.636719 9.960937-5.367187 4.230469 1.269531 6.636719 5.726562 5.367187 9.960937l-24 80c-.976562 3.257813-3.90625 5.542969-7.304687 5.695313zm0 0" fill="#f1f2f2"/></svg>